<svg xmlns="http://www.w3.org/2000/svg" viewBox="0 0 131.68 96.11"><title>logo-artmusicpro</title><g data-name="Слой 2"><g data-name="Слой 1"><path d="M28.28 65.29C20 63.73 17.18 69.7 16.9 72.82c-.28 2.66.92 5.42 1.47 1.29s6.79-5.78 10.74-4.41 8.54 6.88 5.23 16.15c-2.84 6.52-8.87 7.89-13.34 8.21a19.69 19.69 0 0 1-14.41-4.9c-5.87-5.51-3.05-15 2.2-19C14.24 66 25.71 60.7 29.11 55.1a8.71 8.71 0 0 0-4-12.62 10 10 0 0 0-6.92.25c-.19-4.44-1.07-29.43-1.07-32.36 0-2.21.73-6.33.92-8.17S17.85.06 17.85.06L14.67 0l-.11 48.15h1.33s2.39-4.54 7.25-4.18c3.95.73 4.68 4.54 3.4 8-1.47 3.76-10.74 8.9-16 12.12C1.94 69.7-1 76.4.29 82.55S8.27 97 21.22 96s16.49-10.44 17.07-14.74c.64-4.68-1.75-14.41-10.01-15.97z"/><circle cx="10.94" cy="1.96" r="1.35"/><circle cx="11.43" cy="6.24" r="1.35"/><circle cx="11.98" cy="10.28" r="1.35"/><circle cx="19.38" cy="10.28" r="1.35"/><circle cx="20.11" cy="6.36" r="1.35"/><circle cx="20.85" cy="1.9" r="1.35"/><path d="M24.37 15.69h107.21v.83H24.37zm18.64 56.45h88.57v.83H43.01zm8.24-36.59l.27.1-.63 1.16A10.53 10.53 0 0 1 46.12 38h-1.01a8.6 8.6 0 0 1-4-1.25 7.23 7.23 0 0 1-2.65-2.87 8.75 8.75 0 0 1-.92-4.07 8.35 8.35 0 0 1 .86-3.83 7.25 7.25 0 0 1 2.44-2.76 8.42 8.42 0 0 1 3.72-1.34q.58-.05 1.69-.05a15.93 15.93 0 0 1 5.19.9 15.11 15.11 0 0 0-.5 3.27h-.58q-.05-.63-.15-1.8A7.85 7.85 0 0 0 48 23.06a7 7 0 0 0-2.35-.41 9.16 9.16 0 0 0-1.16.1 4.89 4.89 0 0 0-2.59 1.15 5.61 5.61 0 0 0-1.56 2.31 9.07 9.07 0 0 0 .2 6.48 6.79 6.79 0 0 0 2 2.69 6.62 6.62 0 0 0 3.23 1.33h1.11a7.93 7.93 0 0 0 4.37-1.16zm4.99 2.1v-.79h.32a5.44 5.44 0 0 0 1.24-.1.67.67 0 0 0 .48-.43 3.54 3.54 0 0 0 .12-1.12V23.12h-1.68q-.68 0-1.85.1a.79.79 0 0 0-.74.58 14.84 14.84 0 0 0-.22 1.9h-.63v-3.64a12.77 12.77 0 0 0 2.06.15h8.25a13.21 13.21 0 0 0 2.1-.15q-.05.79-.05 2.43v1.21H65a11.23 11.23 0 0 0-.26-1.9.76.76 0 0 0-.68-.58 13.11 13.11 0 0 0-1.91-.1h-1.68v11.63a5.52 5.52 0 0 0 .1 1.22 1.13 1.13 0 0 0 .41.66 1.51 1.51 0 0 0 .92.23h.74v.79q-2.22-.1-3.48-.1-1.97 0-2.92.1zM75.52 32q.94-1.74 1.51-3t1-2.33q.44-1.12.82-2.29t.68-2.05q.21-.31.43-.31h1.74a10.22 10.22 0 0 0-1 1.64q-.64 1.17-1.92 3.78l-2.14 4.34q-.86 1.74-1.94 3.77a4.21 4.21 0 0 1-1.95 2 4.64 4.64 0 0 1-1.81.48q-.63 0-.63-.53 0-1.43.75-1.43h1.06a2.81 2.81 0 0 0 1.3-.48 4.62 4.62 0 0 0 .92-1.37l-3.92-9a4.85 4.85 0 0 0-.7-1.22 2 2 0 0 0-.91-.75 2.11 2.11 0 0 0-.8-.1h-.48v-.7l2.22-.36h.63a1.28 1.28 0 0 1 .75.21 3.78 3.78 0 0 1 .78 1 12 12 0 0 1 .81 1.7zm10.39 5.76a7.59 7.59 0 0 0-1.53.11 1 1 0 0 0-.65.38 1.71 1.71 0 0 0-.2.78q0 .51-.1 1.48h-.8v-.79q0-.68-.05-1.69t-.05-1.48h.05a1.53 1.53 0 0 0 .57-.13 1.6 1.6 0 0 0 .54-.35 4.52 4.52 0 0 0 .41-.59c.1-.18.19-.36.28-.55l.37-.81 5.07-12.28c0-.07.11-.1.32-.1s.29 0 .32.1l5.33 13.27a4.77 4.77 0 0 0 .53 1 1.34 1.34 0 0 0 .49.43 1.4 1.4 0 0 0 .56.1h.17v.15q0 .66-.08 1.59t-.08 1.43a3.53 3.53 0 0 0 .05.74h-.89q-.05-1-.08-1.54a1.88 1.88 0 0 0-.17-.8.79.79 0 0 0-.57-.33 9.2 9.2 0 0 0-1.52-.08l-3.79-.05zm-.36-2.53a5.47 5.47 0 0 0-.32 1.06q0 .41.85.41h7q.9 0 .9-.53a3.34 3.34 0 0 0-.21-.84l-4.16-10.52zM110.2 37a6.41 6.41 0 0 0 1.4-.15.8.8 0 0 0 .58-.48 3.88 3.88 0 0 0 .14-1.23V23.48l-4 6.44-3 4.69q-1.49 2.34-2 3.09h-4.19V37a5.91 5.91 0 0 0 1.45-.21.78.78 0 0 0 .5-.55 6.18 6.18 0 0 0 .12-1.46V24.64a4 4 0 0 0-.14-1.26.72.72 0 0 0-.52-.46 8.76 8.76 0 0 0-1.46-.17v-.68h6.34v.68a6 6 0 0 0-1.41.12.77.77 0 0 0-.56.48 3.75 3.75 0 0 0-.14 1.19v11.68q1.17-1.83 2.32-3.66l2.47-3.93 2.48-3.9q1.15-1.8 1.72-2.61h1.54l1.11-.05q.8-.05 1.59-.05v.68a6.29 6.29 0 0 0-1.45.15.75.75 0 0 0-.55.54 6.25 6.25 0 0 0-.12 1.48v9.83a4.69 4.69 0 0 0 .15 1.37 1 1 0 0 0 .57.65 4.33 4.33 0 0 0 1.39.26v.68q-2.12-.1-3-.1t-3.33.1zm21.44.65q-1-.05-3.06-.05t-3 .05v-.74a5.56 5.56 0 0 0 1.49-.13.7.7 0 0 0 .48-.54 8 8 0 0 0 .1-1.55v-9.24q0-1.53-.05-2.27a7 7 0 0 0-1.95-.27 3.94 3.94 0 0 0-1.62.34 2.94 2.94 0 0 0-1.23 1 2.82 2.82 0 0 0-.48 1.67 3 3 0 0 0 .59 1.92 3.35 3.35 0 0 0 1.58 1.08 6.82 6.82 0 0 0 2.2.34v.36a3.88 3.88 0 0 0-.61.56q-.25.29-.62.78t-.56.72L122.45 35a31.38 31.38 0 0 0-1.91 2.64 14.69 14.69 0 0 0-1.47-.1q-.48 0-1.43.1V37a1.53 1.53 0 0 0 1-.33 3.59 3.59 0 0 0 .72-.78l.72-1.06 3.86-5.12a5.55 5.55 0 0 1-3.48-2.75 5.33 5.33 0 0 1-.31-1.59 3.82 3.82 0 0 1 .25-1.37 2.57 2.57 0 0 1 .75-1.07q1-.9 3.86-.9 1.32 0 2.92.1h3.69v.69a13.23 13.23 0 0 0-1.35.14.59.59 0 0 0-.43.3 1.94 1.94 0 0 0-.12.83v10.74a8.29 8.29 0 0 0 .08 1.5.62.62 0 0 0 .44.48 7 7 0 0 0 1.38.19zm-90.09 8.28q2.9 0 4.17-.05H47q.53 0 .53.74v.33a21.14 21.14 0 0 0-.1 2.48h-.58q-.06-.9-.12-1.32a2.33 2.33 0 0 0-.3-.85 11.12 11.12 0 0 0-3.49-.43h-1.79q0 .49-.1 1a8.19 8.19 0 0 0-.06.9v9.77a8.42 8.42 0 0 0 .01 1.35 1.07 1.07 0 0 0 .28.62 1.16 1.16 0 0 0 .63.26q.42.06 1.23.1v.68q-2.12-.1-3.28-.1t-3.28.1v-.68a5.85 5.85 0 0 0 1.51-.17.84.84 0 0 0 .58-.56 5.74 5.74 0 0 0 .13-1.48V48.21a2.74 2.74 0 0 0-.15-1.11.67.67 0 0 0-.46-.38 11 11 0 0 0-1.3-.15v-.69q1.59.05 4.66.05zm18.53 14.91a6.41 6.41 0 0 0 1.4-.15.8.8 0 0 0 .58-.48A3.88 3.88 0 0 0 62.2 59V47.35l-4 6.44-3 4.69q-1.49 2.34-2 3.09H49v-.68a5.92 5.92 0 0 0 1.45-.21.78.78 0 0 0 .5-.55 6.18 6.18 0 0 0 .12-1.46V48.51a4 4 0 0 0-.07-1.27.72.72 0 0 0-.52-.46 8.78 8.78 0 0 0-1.48-.17v-.68h1.51L52 46h3.33v.68a6 6 0 0 0-1.41.12.77.77 0 0 0-.56.48 3.75 3.75 0 0 0-.14 1.19v11.62q1.17-1.83 2.32-3.66L58 52.5l2.48-3.9q1.15-1.8 1.72-2.61h1.54l1.1.01q.8-.05 1.59-.05v.68a6.29 6.29 0 0 0-1.45.15.75.75 0 0 0-.55.54 6.25 6.25 0 0 0-.12 1.48v9.78a4.69 4.69 0 0 0 .15 1.37 1 1 0 0 0 .57.65 4.33 4.33 0 0 0 1.39.26v.68q-2.12-.1-3-.1t-3.33.1zm10.76.68v-.79h.32a5.44 5.44 0 0 0 1.24-.1.67.67 0 0 0 .48-.43 3.54 3.54 0 0 0 .12-1.05V47h-1.68q-.68 0-1.85.1a.79.79 0 0 0-.74.58 14.84 14.84 0 0 0-.22 1.9h-.63v-3.65a12.77 12.77 0 0 0 2.06.15h.54L71 46h7.14a13.21 13.21 0 0 0 2.1-.15q-.05.79-.05 2.43v1.21h-.63a11.23 11.23 0 0 0-.26-1.9.76.76 0 0 0-.68-.58 13.11 13.11 0 0 0-1.91-.1h-1.64v11.71a5.52 5.52 0 0 0 .1 1.22 1.13 1.13 0 0 0 .41.66 1.51 1.51 0 0 0 .92.23h.74v.79q-2.22-.1-3.48-.1-1.96 0-2.92.1zm9.87 0h.63v-.68a1.8 1.8 0 0 0 1.11-.43 3.39 3.39 0 0 0 .34-.51c.09-.17.17-.34.25-.5l.3-.74.27-.68 5.07-12.28c0-.07.15-.1.32-.1s.32 0 .32.1L94.71 59l.25.61a3.2 3.2 0 0 0 .39.77 1 1 0 0 0 .43.29 5.07 5.07 0 0 0 .84.19v.68q-1.81-.1-2.75-.1t-2.75.1v-.68a7.86 7.86 0 0 0 1.36-.14.45.45 0 0 0 .33-.49 3.48 3.48 0 0 0-.21-1l-1.43-3.91h-5.28l-1.47 3.81a3.7 3.7 0 0 0-.27 1.06.5.5 0 0 0 .35.53 5.45 5.45 0 0 0 1.29.15v.68q-1.58-.1-2.43-.1h-1zm5.55-7.24h4.49l-2.22-5.6zm10.81 7.24h1.21v-.79a8.19 8.19 0 0 0 1.41-.08.71.71 0 0 0 .56-.41 3.2 3.2 0 0 0 .14-1.14V47.83a1.56 1.56 0 0 0-.14-.77.83.83 0 0 0-.54-.33 9.36 9.36 0 0 0-1.38-.16v-.64h7.05q3.92 0 4.87 1.95a4 4 0 0 1 .37 1.59 4.21 4.21 0 0 1-.57 2.08 4.75 4.75 0 0 1-1.45 1.62 5.22 5.22 0 0 1-3.12.94 4.82 4.82 0 0 1-.71-.06l-.76-.1-.27-.79.74.17a3 3 0 0 0 .69.09 2.72 2.72 0 0 0 2.39-1.12 4 4 0 0 0 .79-2.31 2.86 2.86 0 0 0 0-.38 2.66 2.66 0 0 1 0-.35 2.53 2.53 0 0 0-1.18-1.86 4.53 4.53 0 0 0-2.36-.57 6.62 6.62 0 0 0-2.17.32 11.5 11.5 0 0 0-.1 1.26v10.31a7.5 7.5 0 0 0 .09 1.46.64.64 0 0 0 .42.48 4.32 4.32 0 0 0 1.23.12h.32v.79q-2.22-.1-3.45-.1H99.7zm19.01-12.74v11.68a9.28 9.28 0 0 0 1.64.15 5.08 5.08 0 0 0 3.1-.88 3.33 3.33 0 0 0 1.18-2.86 3.6 3.6 0 0 0-.58-2.12 3.2 3.2 0 0 0-1.53-1.18 5.87 5.87 0 0 0-2.07-.35h-.53l.27-.85a23.22 23.22 0 0 1 2.39.12 7.75 7.75 0 0 1 2.36.65 3.12 3.12 0 0 1 1.69 1.57 3.73 3.73 0 0 1 .36 1.69 4.86 4.86 0 0 1-.36 1.82 4.52 4.52 0 0 1-1.11 1.61 5.89 5.89 0 0 1-2.3 1.34 9.73 9.73 0 0 1-2.74.35q-.39 0-1.19-.05t-1.24-.05H115q-.35 0-1 .05t-1 .05V61a1.34 1.34 0 0 0 .74-.53 3.9 3.9 0 0 0 .26-1.9v-9.94a6.15 6.15 0 0 0-.1-1.39.66.66 0 0 0-.49-.49 6.33 6.33 0 0 0-1.36-.14v-.74q.63.05 2.59.05h3.59v.68a6.27 6.27 0 0 0-1.45.15.75.75 0 0 0-.55.54 6.25 6.25 0 0 0-.15 1.49zm9.2-2.17v-.68h3.01L130 46h1.66v.68a9.48 9.48 0 0 0-1.22.09 1 1 0 0 0-.54.26 1 1 0 0 0-.24.57 10.13 10.13 0 0 0-.05 1.24v9.78a5.13 5.13 0 0 0 .14 1.37 1 1 0 0 0 .56.65 4.42 4.42 0 0 0 1.42.26v.68q-2.12-.1-3.17-.1t-3.18.1v-.68a6.31 6.31 0 0 0 1.48-.21.78.78 0 0 0 .52-.55 6.18 6.18 0 0 0 .12-1.46V48.51a3.74 3.74 0 0 0-.15-1.26.76.76 0 0 0-.54-.46 8.93 8.93 0 0 0-1.53-.18zM44 85.08h.39v-.42a1.1 1.1 0 0 0 .68-.26 2.07 2.07 0 0 0 .21-.31q.08-.15.15-.31l.19-.45.17-.41 3.1-7.5s.09-.06.2-.06.2 0 .2.06l3.29 8.11.15.37a2 2 0 0 0 .24.47.59.59 0 0 0 .27.18 3.11 3.11 0 0 0 .51.11v.42q-1.1-.08-1.67-.08t-1.68.06v-.42a4.83 4.83 0 0 0 .83-.09.27.27 0 0 0 .2-.3 2.09 2.09 0 0 0-.13-.62l-.88-2.39H47.2l-.9 2.33a2.26 2.26 0 0 0-.17.65.3.3 0 0 0 .21.32 3.32 3.32 0 0 0 .79.09v.42q-1-.06-1.48-.06L45 85zm3.39-4.43h2.75l-1.36-3.42zm8.52 3.07v-3.16a2.57 2.57 0 0 0-.06-.68.43.43 0 0 0-.29-.28 2.64 2.64 0 0 0-.78-.08v-.35a6.52 6.52 0 0 0 2.06-.51h.23v1.44q.25-.28.48-.57a4.77 4.77 0 0 1 .43-.48 1.65 1.65 0 0 1 .42-.3 1.17 1.17 0 0 1 .51-.11 3.82 3.82 0 0 1 .68.13 14.74 14.74 0 0 0-.09 1.68h-.32a1 1 0 0 0-.91-.65h-.29a1 1 0 0 0-.47.32 1.39 1.39 0 0 0-.3.52 2.53 2.53 0 0 0-.09.68v2.26a2.09 2.09 0 0 0 .08.7.48.48 0 0 0 .35.28 3.89 3.89 0 0 0 .82.09v.39q-.62-.04-1.81-.04t-1.8.06v-.39a2.75 2.75 0 0 0 .77-.08.46.46 0 0 0 .32-.27 1.94 1.94 0 0 0 .06-.6zm5.69-.29v-3.68h-1v-.26a4.9 4.9 0 0 0 1-.45v-2a8.75 8.75 0 0 0 1.07-.55l.2.13a22.5 22.5 0 0 0-.1 2.52h1.82l-.06.71h-1.76v3.07a2.79 2.79 0 0 0 .2 1.25.8.8 0 0 0 .77.37h.81l.06.16a3.68 3.68 0 0 1-.75.53 1.68 1.68 0 0 1-.77.18h-.35a1 1 0 0 1-.89-.54 2.73 2.73 0 0 1-.25-1.44zm3.4 1.65h.55v-.48h.19a1.09 1.09 0 0 0 .84-.26 2 2 0 0 0 .15-.79v-1.21l.1-5.17a2.64 2.64 0 0 0-.08-.79.49.49 0 0 0-.36-.31 3.88 3.88 0 0 0-.89-.09v-.45h2.54q.46 1 .67 1.48t.6 1.23L71.7 83l2.3-4.74q.37-.8 1.19-2.71h2.59V76H77a.59.59 0 0 0-.31.12.52.52 0 0 0-.17.31 3.47 3.47 0 0 0 0 .68v6a2 2 0 0 0 .21 1.12q.21.29 1 .34v.48q-1.19-.05-1.8-.05t-1.84.06v-.46a3.14 3.14 0 0 0 .85-.07.42.42 0 0 0 .29-.32 4 4 0 0 0 .06-.87V77l-2.84 6q-.65 1.42-.91 2.13h-.28l-.26-.6-.29-.53-.3-.66-2.94-6.14v6.47a2.18 2.18 0 0 0 0 .49.49.49 0 0 0 .18.28.91.91 0 0 0 .41.15 4.57 4.57 0 0 0 .69 0v.48q-1-.06-1.55-.06h-.84zm14.73-1.71v-2.95a2 2 0 0 0-.07-.65.32.32 0 0 0-.22-.21 6.66 6.66 0 0 0-.71-.08v-.35a7.37 7.37 0 0 0 2.11-.54l.2.09a14.69 14.69 0 0 0-.1 1.77v2.39a1.94 1.94 0 0 0 .28 1.16 1.09 1.09 0 0 0 .94.39 1.84 1.84 0 0 0 1-.24 2.58 2.58 0 0 0 .69-.69 1.34 1.34 0 0 0 .17-.77v-2.53a.71.71 0 0 0-.16-.54.74.74 0 0 0-.49-.13h-.49v-.35q.68-.09 1.19-.2a5.31 5.31 0 0 0 1-.35l.16.06q-.06 1.23-.06 1.87v3.14a2.32 2.32 0 0 0 .09.7.36.36 0 0 0 .25.24 5.8 5.8 0 0 0 .75.09v.39q-.65-.08-1.01-.08t-1.16.06V84l-.88.73a2.74 2.74 0 0 1-.67.39 2.34 2.34 0 0 1-.91.16 1.67 1.67 0 0 1-1.9-1.91zm7.9 1.63a6.77 6.77 0 0 0 .16-1.59v-.32h.39a1.88 1.88 0 0 0 .38 1.28 1.57 1.57 0 0 0 1.24.43 1.39 1.39 0 0 0 1.2-.6 1.19 1.19 0 0 0 .19-.68.84.84 0 0 0-.29-.68 3.32 3.32 0 0 0-1.24-.53 5.87 5.87 0 0 1-1.48-.58 1.17 1.17 0 0 1-.51-1.08 1.58 1.58 0 0 1 .37-1 2.81 2.81 0 0 1 .92-.77 2.24 2.24 0 0 1 1-.29 5.21 5.21 0 0 1 1.68.26q-.07.8-.07 1.1v.48h-.32v-.35a1.71 1.71 0 0 0 0-.29.73.73 0 0 0-.1-.22 1.54 1.54 0 0 0-.6-.4 2 2 0 0 0-.73-.15 1.27 1.27 0 0 0-.9.34 1 1 0 0 0-.36.73.84.84 0 0 0 .43.74 2.74 2.74 0 0 0 .83.32l1 .25a2.32 2.32 0 0 1 .8.37 1.26 1.26 0 0 1 .55 1.14 2.21 2.21 0 0 1-.36 1.22 2.45 2.45 0 0 1-2.33 1.1 9.17 9.17 0 0 1-1.85-.23zm5.47-.31a1.8 1.8 0 0 0 .81-.13q.22-.13.22-.61v-3.53a1.74 1.74 0 0 0-.08-.62.36.36 0 0 0-.26-.22 5 5 0 0 0-.7-.07v-.39a7.38 7.38 0 0 0 2-.54l.22.06v5a1.27 1.27 0 0 0 .2.84 1.14 1.14 0 0 0 .83.22v.39Q95.31 85 94.69 85t-1.58.06zM94.72 77a.69.69 0 0 1-.37-.12 1 1 0 0 1-.35-.28.68.68 0 0 1-.12-.37.77.77 0 0 1 .12-.4 1 1 0 0 1 .31-.32.68.68 0 0 1 .38-.12.76.76 0 0 1 .4.12 1 1 0 0 1 .32.32.75.75 0 0 1 .12.4.67.67 0 0 1-.12.37 1 1 0 0 1-.32.31.77.77 0 0 1-.37.09zm8.03 7.24l-.29.51a5.08 5.08 0 0 1-1 .36 4.08 4.08 0 0 1-1 .12 3.39 3.39 0 0 1-1.68-.42 2.48 2.48 0 0 1-1-1.14 3.91 3.91 0 0 1-.3-1.67 3.78 3.78 0 0 1 .52-1.9 2.76 2.76 0 0 1 1-.86 5.28 5.28 0 0 1 1.27-.6 4 4 0 0 1 .84-.09 3.87 3.87 0 0 1 1.65.39q-.08.47-.11.88t-.08.86h-.36a2.8 2.8 0 0 0-.17-.93 1.15 1.15 0 0 0-.69-.4 3 3 0 0 0-.78-.13 1.88 1.88 0 0 0-1.11.34 1.59 1.59 0 0 0-.63 1 3.89 3.89 0 0 0-.09.93A4.06 4.06 0 0 0 99 83a2.49 2.49 0 0 0 .82 1.11 2.15 2.15 0 0 0 .63.32 2.27 2.27 0 0 0 .66.1 3.6 3.6 0 0 0 1.55-.39zm7 .84h.74v-.48a5 5 0 0 0 .86-.05.44.44 0 0 0 .34-.25 1.94 1.94 0 0 0 .09-.7v-6.85a1 1 0 0 0-.09-.47.51.51 0 0 0-.33-.2 5.72 5.72 0 0 0-.84-.1v-.39h4.3q2.4 0 3 1.19a2.46 2.46 0 0 1 .23 1 2.57 2.57 0 0 1-.35 1.27 2.91 2.91 0 0 1-.88 1 3.19 3.19 0 0 1-1.91.58 2.92 2.92 0 0 1-.43 0l-.46-.06-.17-.48.45.1a1.84 1.84 0 0 0 .42.06 1.66 1.66 0 0 0 1.46-.68 2.42 2.42 0 0 0 .48-1.41 1.76 1.76 0 0 0 0-.23 1.59 1.59 0 0 1 0-.22 1.55 1.55 0 0 0-.72-1.14 2.77 2.77 0 0 0-1.44-.35 4 4 0 0 0-1.33.2 7.2 7.2 0 0 0-.06.77v6.33a4.53 4.53 0 0 0 .06.89.39.39 0 0 0 .26.3 2.64 2.64 0 0 0 .75.07h.19v.48Q113 85 112.23 85h-.89zm10.39-1.36v-3.16a2.57 2.57 0 0 0-.06-.68.43.43 0 0 0-.29-.28 2.64 2.64 0 0 0-.78-.08v-.35a6.52 6.52 0 0 0 2.06-.51h.23v1.44q.25-.28.48-.57a4.77 4.77 0 0 1 .43-.48 1.65 1.65 0 0 1 .42-.3 1.17 1.17 0 0 1 .51-.11 3.82 3.82 0 0 1 .68.13 14.74 14.74 0 0 0-.09 1.68h-.32a1 1 0 0 0-.91-.65h-.29a1 1 0 0 0-.47.32 1.39 1.39 0 0 0-.3.52 2.53 2.53 0 0 0-.09.68v2.26a2.09 2.09 0 0 0 .08.7.48.48 0 0 0 .35.28 3.89 3.89 0 0 0 .82.09v.39q-.6-.04-1.81-.04t-1.8.06v-.39a2.75 2.75 0 0 0 .77-.08.46.46 0 0 0 .32-.27 1.94 1.94 0 0 0 .06-.6zm4.86-1.77a3.68 3.68 0 0 1 .41-1.77 2.94 2.94 0 0 1 1.21-1.18 3.57 3.57 0 0 1 1.77-.43 3.48 3.48 0 0 1 1.29.23 2.74 2.74 0 0 1 1 .65 2.86 2.86 0 0 1 .62 1 3.76 3.76 0 0 1 .21 1.31 3.88 3.88 0 0 1-.25 1.39 3.35 3.35 0 0 1-.7 1.13 3.15 3.15 0 0 1-1.09.74 3.57 3.57 0 0 1-1.38.26 3.05 3.05 0 0 1-1.64-.43 2.72 2.72 0 0 1-1-1.19 4 4 0 0 1-.45-1.71zm1.23-.29a4.41 4.41 0 0 0 .54 2.16 1.8 1.8 0 0 0 1.7 1 1.44 1.44 0 0 0 1.33-.77 3.59 3.59 0 0 0 .44-1.82 4.87 4.87 0 0 0-.48-2.2 1.67 1.67 0 0 0-1.62-1 1.64 1.64 0 0 0-1.76 1.29 5.29 5.29 0 0 0-.12 1.34z"/></g></g></svg>