<?xml version="1.0" encoding="UTF-8"?>
<!DOCTYPE svg PUBLIC "-//W3C//DTD SVG 1.1//EN" "http://www.w3.org/Graphics/SVG/1.1/DTD/svg11.dtd">
<!-- Creator: CorelDRAW X8 -->
<svg xmlns="http://www.w3.org/2000/svg" xml:space="preserve" width="100%" height="100%" version="1.1" style="shape-rendering:geometricPrecision; text-rendering:geometricPrecision; image-rendering:optimizeQuality; fill-rule:evenodd; clip-rule:evenodd"
viewBox="0 0 6771 7022"
 xmlns:xlink="http://www.w3.org/1999/xlink">
 <defs>
  <style type="text/css">
   <![CDATA[
    .fil0 {fill:black}
   ]]>
  </style>
 </defs>
 <g id="Слой_x0020_1">
  <metadata id="CorelCorpID_0Corel-Layer"/>
  <path class="fil0" d="M6771 5309l0 1125c0,111 -91,202 -202,202l-13 0 0 -1142 215 -185zm-351 94l351 -301 0 -1278 -351 301 -566 0c-353,0 -639,286 -639,639 0,353 286,639 639,639l566 0zm-566 -968c181,0 329,147 329,329 0,181 -148,328 -329,328 -182,0 -329,-147 -329,-328 0,-182 147,-329 329,-329zm-5554 -2716l1080 0 0 7 -293 215 -603 0c-69,0 -126,56 -126,126 0,69 57,125 126,125l5686 0c137,0 250,113 250,250l0 1475 -611 0c-468,0 -847,379 -847,847 0,467 379,847 847,847l611 0 0 1161c0,138 -113,250 -250,250l-5920 0c-137,0 -250,-112 -250,-250l0 -4580 0 -173c0,-165 135,-300 300,-300zm1014 328l2787 -2047 830 1130 -2514 917 -1103 0zm1758 0l2299 -839 306 839 -2605 0zm2737 -328l554 0 0 0c225,0 408,183 408,409l0 6 0 0 0 1482 -215 185 0 -1667c0,-106 -87,-193 -193,-193l-473 0 -81 -222z"/>
 </g>
</svg>
