<svg xmlns="http://www.w3.org/2000/svg" viewBox="0 0 41.04 31"><defs><style>.cls-1{fill:#fff;fill-rule:evenodd;}</style></defs><title>email</title><g id="Слой_2" data-name="Слой 2"><g id="Layer_1" data-name="Layer 1"><path class="cls-1" d="M41,.64A.7.7,0,0,0,41,.5a.69.69,0,0,0-.06-.12L40.86.26l-.11-.1L40.69.1h0l-.14,0-.14,0H.67L.54,0,.4.09h0L.29.16.18.26.1.37,0,.5A.85.85,0,0,0,0,.64.57.57,0,0,0,0,.72V30.28A.72.72,0,0,0,.72,31h39.6a.72.72,0,0,0,.72-.72V.72S41,.67,41,.64Zm-2,.81c-2.15,3.18-9,12.41-18.46,15.67C11.09,13.86,4.21,4.63,2.06,1.45ZM1.45,3.14A48.1,48.1,0,0,0,13.29,15.06,58.79,58.79,0,0,0,1.45,28Zm.71,26.41A58.32,58.32,0,0,1,14.58,15.89a28,28,0,0,0,5.71,2.69h0a.66.66,0,0,0,.23,0,.64.64,0,0,0,.22,0h0a27.91,27.91,0,0,0,5.71-2.69A58.29,58.29,0,0,1,38.88,29.55ZM39.59,28A58.84,58.84,0,0,0,27.75,15.06,48.07,48.07,0,0,0,39.59,3.14Z"/></g></g></svg>