<?xml version="1.0" encoding="UTF-8"?>
<!DOCTYPE svg PUBLIC "-//W3C//DTD SVG 1.1//EN" "http://www.w3.org/Graphics/SVG/1.1/DTD/svg11.dtd">
<!-- Creator: CorelDRAW X8 -->
<svg xmlns="http://www.w3.org/2000/svg" xml:space="preserve" width="100%" height="100%" version="1.1" style="shape-rendering:geometricPrecision; text-rendering:geometricPrecision; image-rendering:optimizeQuality; fill-rule:evenodd; clip-rule:evenodd"
viewBox="0 0 4426 5300"
 xmlns:xlink="http://www.w3.org/1999/xlink">
 <defs>
  <style type="text/css">
   <![CDATA[
    .fil0 {fill:black}
   ]]>
  </style>
 </defs>
 <g id="Слой_x0020_1">
  <metadata id="CorelCorpID_0Corel-Layer"/>
  <path class="fil0" d="M392 2281c86,-26 104,-48 214,-43 103,5 129,43 206,60 13,-107 26,-154 52,-247 7,56 3,127 3,184 0,125 -12,96 37,159 97,121 122,286 46,441 -17,35 -108,127 -21,195 49,38 105,100 143,152 118,164 186,321 220,551 22,158 30,369 -164,396 -80,11 -118,-28 -154,-27 -13,355 9,716 -7,1073 57,34 116,93 237,63 76,-19 141,-76 169,-144 35,-82 19,-1050 19,-1216l0 -585c8,-40 -9,-13 18,-28 10,5 19,-3 19,53 3,283 -11,1600 2,1706 34,283 431,296 489,23 28,-137 -19,-2033 13,-2067 30,-14 71,-13 101,-28 33,-16 49,-38 80,-48l33 27c-17,166 -144,632 -173,886 -11,95 -17,106 44,154 88,70 193,81 306,119 -2,228 0,457 0,685 0,98 -13,240 23,324 78,180 331,199 438,26 50,-81 36,-195 36,-307l0 -602c-2,-102 -2,-68 19,-78 11,5 19,-4 19,52 0,22 -1,46 -1,69 0,48 0,96 0,144 0,96 0,192 0,288 0,188 -33,379 80,487 120,115 316,71 384,-57 43,-82 44,-436 30,-536l-124 -3 74 -441c-142,-4 -227,-87 -226,-229 1,-139 23,-273 62,-396 76,-233 225,-436 378,-534 -18,-40 -204,-191 -133,-433 19,-63 26,-49 9,-120 -17,-65 -14,-373 -7,-430 65,69 73,293 107,355 91,-38 96,-139 402,-105 -13,-120 -68,-309 -114,-404 -115,-241 -249,-404 -478,-554 -81,-53 -231,-156 -343,-172 -48,40 -90,94 -128,131 -51,-24 -109,-133 -156,-128 -96,11 -381,209 -467,286 -24,21 -49,49 -79,70l-156 -136c-109,-85 -242,-176 -386,-216 -45,-13 -57,20 -86,49 -25,25 -54,51 -74,76 -37,-21 -89,-93 -136,-132 -178,25 -497,272 -609,413 -81,101 -142,183 -194,323 -53,144 -79,259 -96,426zm148 55c-428,116 -249,705 133,617 151,-34 283,-175 243,-377 -29,-146 -193,-290 -376,-240zm3177 3c-104,35 -139,54 -193,130 -170,241 73,569 341,493 274,-78 337,-411 106,-579 -60,-44 -169,-74 -254,-44zm-817 -2339l-131 0c-30,14 -105,14 -189,62 -530,303 -280,1013 235,1022 566,9 765,-737 275,-1012 -118,-67 -145,-47 -190,-72zm-1419 0l-137 0c-39,23 -122,35 -185,71 -483,269 -296,1022 276,1013 289,-5 513,-236 528,-516 12,-226 -116,-410 -288,-503 -101,-55 -155,-47 -194,-65zm-1207 3592c22,46 7,287 9,362 2,64 16,94 15,169l0 940c0,129 58,213 176,189 122,-24 116,-131 116,-265 0,-109 -15,-698 7,-748 16,11 17,-10 15,79l0 669c0,123 -7,245 116,266 141,25 174,-94 174,-207l0 -956c6,-57 29,-85 30,-170 0,-64 -10,-342 3,-378 31,50 55,163 64,229 12,91 -10,192 60,237 73,48 161,2 172,-79 11,-77 -10,-202 -24,-272 -59,-301 -270,-607 -517,-674 -26,16 -56,60 -85,72l-75 -74c-239,53 -443,386 -497,629 -28,126 -91,421 96,400 156,-18 62,-246 145,-418zm3318 1708l65 0c56,-36 98,-40 112,-122 9,-56 0,-526 2,-649 0,-40 -7,-38 18,-48 15,37 5,385 5,455 0,137 -29,283 69,340l39 24 79 0 38 -23c39,-25 63,-59 68,-112 14,-125 -11,-498 3,-685l142 -1c-2,-228 -142,-553 -110,-922 35,71 52,144 66,235 14,90 -8,192 56,239 77,57 175,4 181,-94 20,-370 -212,-847 -552,-944 -33,21 -51,57 -84,73 -20,-14 -60,-57 -77,-75 -256,88 -429,335 -503,637 -31,125 -91,442 103,407 159,-29 57,-331 146,-420 30,285 -103,640 -110,863l128 1c12,140 2,329 2,474 0,289 -24,252 114,347z"/>
 </g>
</svg>
