<?xml version="1.0" encoding="UTF-8"?>
<!DOCTYPE svg PUBLIC "-//W3C//DTD SVG 1.1//EN" "http://www.w3.org/Graphics/SVG/1.1/DTD/svg11.dtd">
<!-- Creator: CorelDRAW X8 -->
<svg xmlns="http://www.w3.org/2000/svg" xml:space="preserve" width="100%" height="100%" version="1.1" style="shape-rendering:geometricPrecision; text-rendering:geometricPrecision; image-rendering:optimizeQuality; fill-rule:evenodd; clip-rule:evenodd"
viewBox="0 0 21532 19719"
 xmlns:xlink="http://www.w3.org/1999/xlink">
 <defs>
  <style type="text/css">
   <![CDATA[
    .fil0 {fill:#999999}
   ]]>
  </style>
 </defs>
 <g id="Слой_x0020_1">
  <metadata id="CorelCorpID_0Corel-Layer"/>
  <path class="fil0" d="M4486 18941c1029,470 3186,723 4352,772 1301,54 3377,-247 4303,-812 -3,-848 10,-1702 -1,-2549 -18,-1396 -759,-2582 -2022,-3089 -755,-304 -1490,-246 -2351,-246 -857,0 -1553,-57 -2299,260 -1271,540 -1986,1711 -1992,3110l10 2554z"/>
  <path class="fil0" d="M28 16316c306,165 1389,392 1796,481 599,131 1399,254 2046,269 42,-1324 -3,-1985 659,-2940 281,-405 504,-636 877,-923 563,-432 759,-402 1201,-626 -49,-110 -291,-345 -400,-508 -251,-376 -454,-853 -509,-1328 -54,-456 -13,-345 -565,-344 -1191,2 -2345,-134 -3316,346 -732,363 -1406,1082 -1667,2000 -162,573 -132,1087 -132,1704 0,547 -47,1354 10,1869z"/>
  <path class="fil0" d="M11008 12577c480,236 599,174 1179,603 707,523 1233,1294 1449,2181 149,609 88,1088 118,1715 474,45 1465,-130 1931,-226 309,-64 571,-142 862,-236 283,-90 592,-265 800,-324 -9,-929 37,-1912 -10,-2832 -21,-421 -120,-785 -277,-1134 -171,-382 -332,-576 -555,-853 -328,-409 -1058,-882 -1809,-1016 -468,-84 -2237,-108 -2735,-49 -222,1388 -238,1195 -953,2171z"/>
  <path class="fil0" d="M15200 10002c175,156 1214,303 2069,1552 613,895 691,1675 667,2968 844,37 3119,-396 3596,-816l-2 -2788c-34,-701 -367,-1535 -818,-1995 -435,-444 -977,-863 -1799,-1021 -482,-93 -2261,-111 -2772,-52 -30,481 -124,881 -300,1252 -273,576 -437,623 -641,900z"/>
  <path class="fil0" d="M8155 60c-1582,362 -2483,1761 -2169,3270 273,1310 1603,2470 3248,2128 2343,-488 2996,-3477 1089,-4915 -519,-392 -1344,-671 -2168,-483z"/>
  <path class="fil0" d="M8534 7787c-768,122 -1313,435 -1652,859 -382,477 -672,1069 -599,1913 113,1305 1354,2453 2795,2270 1325,-169 2406,-1277 2257,-2792 -126,-1268 -1348,-2480 -2801,-2250z"/>
  <path class="fil0" d="M4050 5161c-1306,180 -2410,1307 -2217,2852 161,1290 1348,2362 2847,2182 275,-33 742,-171 953,-329 82,-61 269,-759 346,-925 562,-1203 1000,-711 888,-1593 -159,-1265 -1354,-2389 -2817,-2187z"/>
  <path class="fil0" d="M14676 5115c742,337 1325,1369 1450,2291 835,521 2292,239 3002,-625 1709,-2080 -382,-4836 -2700,-4076 -924,304 -1760,1174 -1752,2410z"/>
  <path class="fil0" d="M10488 7638c112,96 251,181 343,266 1145,1058 999,1862 1120,2048 106,164 764,260 1013,266 1416,35 2572,-1110 2590,-2509 34,-2674 -3613,-3589 -4833,-1113 -143,291 -253,681 -233,1042z"/>
  <path class="fil0" d="M6818 5804c355,710 469,719 541,1692 189,-24 925,-517 2046,-288 166,33 508,168 608,162 116,-1129 469,-1346 542,-1591 -629,-118 -2077,-76 -2846,-76 -269,0 -690,-28 -891,101z"/>
 </g>
</svg>
