<svg xmlns="http://www.w3.org/2000/svg" viewBox="0 0 27.41 41"><defs><style>.cls-1{fill:#fff;fill-rule:evenodd;}</style></defs><title>map-marker</title><g id="Слой_2" data-name="Слой 2"><g id="Layer_1" data-name="Layer 1"><path class="cls-1" d="M13.71,4.9A9.09,9.09,0,1,0,22.79,14,9.1,9.1,0,0,0,13.71,4.9Zm0,16.9A7.81,7.81,0,1,1,21.52,14,7.82,7.82,0,0,1,13.71,21.8Zm0-21.8C6.15,0,0,6.61,0,14.74,0,27.63,12.72,40.29,13.26,40.82a.64.64,0,0,0,.89,0c.54-.52,13.26-13,13.26-26.08C27.41,6.61,21.26,0,13.71,0Zm0,39.45C11.44,37.07,1.28,25.77,1.28,14.74c0-7.42,5.58-13.46,12.43-13.46s12.43,6,12.43,13.46C26.14,25.95,16,37.09,13.71,39.45Z"/></g></g></svg>