<svg xmlns="http://www.w3.org/2000/svg" viewBox="0 0 32.9 41"><defs><style>.cls-1{fill:#fff;fill-rule:evenodd;}</style></defs><title>phone</title><g id="Слой_2" data-name="Слой 2"><g id="Layer_1" data-name="Layer 1"><path class="cls-1" d="M13.65,13a.59.59,0,0,0,.54.35.58.58,0,0,0,.24-.05L22,9.87A.59.59,0,1,0,21.5,8.8l-7.56,3.42A.59.59,0,0,0,13.65,13Zm-2.26-1.86a.59.59,0,0,0,.83-.09L17.49,4.5a.59.59,0,1,0-.92-.74L11.3,10.31A.59.59,0,0,0,11.39,11.14ZM8.61,9.24l.16,0a.59.59,0,0,0,.57-.43L11.65.75A.59.59,0,0,0,10.51.43L8.21,8.51A.59.59,0,0,0,8.61,9.24Zm23.77,25-6.12-5.68,0,0a1.83,1.83,0,0,0-2.54.08L21,31.42c-.6.63-1.48.23-4.29-1.92a37.92,37.92,0,0,1-5.5-5.17C9.71,22.54,9.34,21.6,9.87,21l.72-.62,2.26-2.19a.64.64,0,0,0,.09-.12c.72-1-.4-2-.86-2.39l0,0L6,9.82H6a1.65,1.65,0,0,0-2.4.08l-2,2.21L1,12.73c-.05.07-5.17,7.21,7.72,19.63C16.1,39.44,21.6,41,25,41h.38a6.24,6.24,0,0,0,4.24-1.44l2.75-2.79a1.9,1.9,0,0,0,.51-1.37A1.61,1.61,0,0,0,32.38,34.24ZM4.49,10.69a.47.47,0,0,1,.73,0h0c.29.3,1.41,1.39,6,5.81l.09.09c.72.61.73.83.71.86l-1.8,1.75-7.11-6.9Zm24.3,28a5.19,5.19,0,0,1-3.42,1.08c-2.58.09-8.08-.87-15.78-8.3C-.49,21.81.69,15.18,2,13.47l.31-.34,7,6.82-.25.21c-1.54,1.63.3,3.77,1.28,4.92A39.14,39.14,0,0,0,16,30.43c2.45,1.88,4.39,3.36,5.87,1.8l.14-.14,6.84,6.58Zm2.75-2.79-1.84,1.89-6.86-6.6,1.72-1.8a.64.64,0,0,1,.87,0l0,0,6.15,5.71a.46.46,0,0,1,.13.32A.7.7,0,0,1,31.53,35.94Z"/></g></g></svg>