<?xml version="1.0" encoding="UTF-8"?>
<!DOCTYPE svg PUBLIC "-//W3C//DTD SVG 1.1//EN" "http://www.w3.org/Graphics/SVG/1.1/DTD/svg11.dtd">
<!-- Creator: CorelDRAW X8 -->
<svg xmlns="http://www.w3.org/2000/svg" xml:space="preserve" width="100%" height="100%" version="1.1" style="shape-rendering:geometricPrecision; text-rendering:geometricPrecision; image-rendering:optimizeQuality; fill-rule:evenodd; clip-rule:evenodd"
viewBox="0 0 5337 4276"
 xmlns:xlink="http://www.w3.org/1999/xlink">
 <defs>
  <style type="text/css">
   <![CDATA[
    .fil0 {fill:black}
   ]]>
  </style>
 </defs>
 <g id="Слой_x0020_1">
  <metadata id="CorelCorpID_0Corel-Layer"/>
  <path class="fil0" d="M1438 4276l869 0 0 -22 0 -501 0 -500 723 0 0 500 0 501 0 22 869 0 0 -3063 -1231 -792 -1230 792 0 3063zm2662 -2138l1237 0 0 162 -1237 0 0 -162zm-4100 0l1237 0 0 162 -1237 0 0 -162zm4100 2116l1111 0 0 -1813 -1111 0 0 1813zm335 -1644l441 0 0 441 -441 0 0 -441zm0 642l441 0 0 441 -441 0 0 -441zm-4309 1002l1111 0 0 -1813 -1111 0 0 1813zm335 -1644l441 0 0 441 -441 0 0 -441zm0 642l441 0 0 441 -441 0 0 -441zm2207 -3252l1857 1197 -326 0 -1531 -987 -1530 987 -326 0 1856 -1197zm422 1325l441 0 0 441 -441 0 0 -441zm-1284 1285l441 0 0 441 -441 0 0 -441zm642 0l441 0 0 441 -441 0 0 -441zm642 0l441 0 0 441 -441 0 0 -441zm-1284 -643l441 0 0 441 -441 0 0 -441zm642 0l441 0 0 441 -441 0 0 -441zm642 0l441 0 0 441 -441 0 0 -441zm-1284 -642l441 0 0 441 -441 0 0 -441zm642 0l441 0 0 441 -441 0 0 -441z"/>
 </g>
</svg>
